<mxfile host="app.diagrams.net" modified="2024-03-25T09:50:03.610Z" agent="Mozilla/5.0 (Macintosh; Intel Mac OS X 10_15_7) AppleWebKit/605.1.15 (KHTML, like Gecko) Version/17.3.1 Safari/605.1.15" version="24.1.0" etag="WbBJVdSwJGNmAlXcoyLj" type="github">
  <diagram name="Page-1" id="l4U47FaLGZ6Tni0US5l-">
    <mxGraphModel>
      <root>
        <mxCell id="0" />
        <mxCell id="1" parent="0" />
      </root>
    </mxGraphModel>
  </diagram>
</mxfile>
